0
SECTION
2
ENTITIES
0
SPLINE
210
0
220
0
230
0
70
8
71
3
72
8
73
4
74
0
42
0
43
0
40
0
40
0
40
0
40
0
40
1
40
1
40
1
40
1
10
1401.5755137952826
20
466.87073187079415
10
1411.1729470024234
20
471.38873462041954
10
1419.2869993193244
20
478.5438887655793
10
1424.970198393438
20
487.50069183895016
0
SPLINE
210
0
220
0
230
0
70
8
71
3
72
8
73
4
74
0
42
0
43
0
40
0
40
0
40
0
40
0
40
1
40
1
40
1
40
1
10
1424.970198393438
20
487.50069183895016
10
1430.6533974675515
20
496.45749491232095
10
1433.6711897791492
20
506.8462872101037
10
1433.6711897791492
20
517.4539765443154
0
SPLINE
210
0
220
0
230
0
70
8
71
3
72
8
73
4
74
0
42
0
43
0
40
0
40
0
40
0
40
0
40
1
40
1
40
1
40
1
10
1433.6711897791492
20
517.4539765443154
10
1433.6711897791492
20
528.061665878527
10
1430.6533974675515
20
538.4504581763098
10
1424.970198393438
20
547.4072612496807
0
SPLINE
210
0
220
0
230
0
70
8
71
3
72
8
73
4
74
0
42
0
43
0
40
0
40
0
40
0
40
0
40
1
40
1
40
1
40
1
10
1424.970198393438
20
547.4072612496807
10
1419.2869993193244
20
556.3640643230515
10
1411.1729470024234
20
563.5192184682112
10
1401.5755137952826
20
568.0372212178366
0
LINE
10
1444.0950985261084
20
568.0372212178539
11
1401.575513795248
21
568.0372212178539
0
SPLINE
210
0
220
0
230
0
70
8
71
3
72
8
73
4
74
0
42
0
43
0
40
0
40
0
40
0
40
0
40
1
40
1
40
1
40
1
10
1444.0950985256973
20
466.870731870825
10
1449.599803733827
20
474.0892582235188
10
1453.8893203661623
20
482.157916068666
10
1456.794452875682
20
490.7584455427784
0
SPLINE
210
0
220
0
230
0
70
8
71
3
72
8
73
4
74
0
42
0
43
0
40
0
40
0
40
0
40
0
40
1
40
1
40
1
40
1
10
1456.794452875682
20
490.7584455427784
10
1459.6995853852018
20
499.35897501689084
10
1461.1813754787931
20
508.3760416396719
10
1461.1813754787931
20
517.4539765443153
0
SPLINE
210
0
220
0
230
0
70
8
71
3
72
8
73
4
74
0
42
0
43
0
40
0
40
0
40
0
40
0
40
1
40
1
40
1
40
1
10
1461.1813754787931
20
517.4539765443153
10
1461.1813754787931
20
526.5319114489589
10
1459.6995853852018
20
535.5489780717398
10
1456.794452875682
20
544.1495075458523
0
SPLINE
210
0
220
0
230
0
70
8
71
3
72
8
73
4
74
0
42
0
43
0
40
0
40
0
40
0
40
0
40
1
40
1
40
1
40
1
10
1456.794452875682
20
544.1495075458523
10
1453.8893203661623
20
552.7500370199647
10
1449.599803733827
20
560.8186948651119
10
1444.0950985256973
20
568.0372212178057
0
LINE
10
1401.575513795248
20
466.8707318707768
11
1444.0950985261084
21
466.8707318707768
0
LINE
10
1353.9512722741756
20
568.0372212178539
11
1248.050929084333
21
568.0372212178539
0
SPLINE
210
0
220
0
230
0
70
8
71
3
72
8
73
4
74
0
42
0
43
0
40
0
40
0
40
0
40
0
40
1
40
1
40
1
40
1
10
1353.951272274141
20
568.0372212178366
10
1344.3538390670005
20
563.5192184682112
10
1336.2397867500993
20
556.3640643230515
10
1330.5565876759856
20
547.4072612496807
0
SPLINE
210
0
220
0
230
0
70
8
71
3
72
8
73
4
74
0
42
0
43
0
40
0
40
0
40
0
40
0
40
1
40
1
40
1
40
1
10
1330.5565876759856
20
547.4072612496807
10
1324.8733886018722
20
538.4504581763098
10
1321.8555962902747
20
528.061665878527
10
1321.8555962902747
20
517.4539765443153
0
SPLINE
210
0
220
0
230
0
70
8
71
3
72
8
73
4
74
0
42
0
43
0
40
0
40
0
40
0
40
0
40
1
40
1
40
1
40
1
10
1321.8555962902747
20
517.4539765443153
10
1321.8555962902747
20
506.84628721010364
10
1324.8733886018722
20
496.45749491232095
10
1330.5565876759856
20
487.50069183895016
0
SPLINE
210
0
220
0
230
0
70
8
71
3
72
8
73
4
74
0
42
0
43
0
40
0
40
0
40
0
40
0
40
1
40
1
40
1
40
1
10
1330.5565876759856
20
487.50069183895016
10
1336.2397867500993
20
478.5438887655793
10
1344.3538390670005
20
471.38873462041954
10
1353.951272274141
20
466.8707318707941
0
LINE
10
1248.050929084333
20
466.8707318707768
11
1353.9512722741756
21
466.8707318707768
0
SPLINE
210
0
220
0
230
0
70
8
71
3
72
8
73
4
74
0
42
0
43
0
40
0
40
0
40
0
40
0
40
1
40
1
40
1
40
1
10
1248.0509290843672
20
466.8707318707941
10
1257.648362291508
20
471.38873462041954
10
1265.7624146084092
20
478.5438887655793
10
1271.4456136825227
20
487.50069183895016
0
SPLINE
210
0
220
0
230
0
70
8
71
3
72
8
73
4
74
0
42
0
43
0
40
0
40
0
40
0
40
0
40
1
40
1
40
1
40
1
10
1271.4456136825227
20
487.50069183895016
10
1277.1288127566363
20
496.45749491232095
10
1280.1466050682338
20
506.84628721010364
10
1280.1466050682338
20
517.4539765443153
0
SPLINE
210
0
220
0
230
0
70
8
71
3
72
8
73
4
74
0
42
0
43
0
40
0
40
0
40
0
40
0
40
1
40
1
40
1
40
1
10
1280.1466050682338
20
517.4539765443153
10
1280.1466050682338
20
528.061665878527
10
1277.128812756636
20
538.4504581763099
10
1271.4456136825227
20
547.4072612496807
0
SPLINE
210
0
220
0
230
0
70
8
71
3
72
8
73
4
74
0
42
0
43
0
40
0
40
0
40
0
40
0
40
1
40
1
40
1
40
1
10
1271.4456136825227
20
547.4072612496807
10
1265.7624146084092
20
556.3640643230515
10
1257.648362291508
20
563.5192184682112
10
1248.0509290843672
20
568.0372212178366
0
SPLINE
210
0
220
0
230
0
70
8
71
3
72
8
73
4
74
0
42
0
43
0
40
0
40
0
40
0
40
0
40
1
40
1
40
1
40
1
10
1046.9021028523105
20
568.0372212178366
10
1037.30466964517
20
563.5192184682112
10
1029.1906173282687
20
556.3640643230515
10
1023.5074182541551
20
547.4072612496807
0
SPLINE
210
0
220
0
230
0
70
8
71
3
72
8
73
4
74
0
42
0
43
0
40
0
40
0
40
0
40
0
40
1
40
1
40
1
40
1
10
1023.5074182541551
20
547.4072612496807
10
1017.8242191800416
20
538.4504581763098
10
1014.8064268684439
20
528.061665878527
10
1014.8064268684439
20
517.4539765443153
0
SPLINE
210
0
220
0
230
0
70
8
71
3
72
8
73
4
74
0
42
0
43
0
40
0
40
0
40
0
40
0
40
1
40
1
40
1
40
1
10
1014.8064268684439
20
517.4539765443153
10
1014.8064268684439
20
506.8462872101037
10
1017.8242191800416
20
496.45749491232095
10
1023.5074182541551
20
487.50069183895016
0
SPLINE
210
0
220
0
230
0
70
8
71
3
72
8
73
4
74
0
42
0
43
0
40
0
40
0
40
0
40
0
40
1
40
1
40
1
40
1
10
1023.5074182541551
20
487.50069183895016
10
1029.1906173282687
20
478.5438887655793
10
1037.30466964517
20
471.38873462041954
10
1046.9021028523105
20
466.87073187079415
0
LINE
10
1004.3825181232595
20
466.8707318707768
11
1046.902102852345
21
466.8707318707768
0
SPLINE
210
0
220
0
230
0
70
8
71
3
72
8
73
4
74
0
42
0
43
0
40
0
40
0
40
0
40
0
40
1
40
1
40
1
40
1
10
1004.3825181218956
20
568.0372212178057
10
998.877812913766
20
560.8186948651119
10
994.5882962814308
20
552.7500370199648
10
991.683163771911
20
544.1495075458523
0
SPLINE
210
0
220
0
230
0
70
8
71
3
72
8
73
4
74
0
42
0
43
0
40
0
40
0
40
0
40
0
40
1
40
1
40
1
40
1
10
991.683163771911
20
544.1495075458523
10
988.7780312623913
20
535.5489780717398
10
987.2962411688001
20
526.5319114489589
10
987.2962411688001
20
517.4539765443154
0
SPLINE
210
0
220
0
230
0
70
8
71
3
72
8
73
4
74
0
42
0
43
0
40
0
40
0
40
0
40
0
40
1
40
1
40
1
40
1
10
987.2962411688001
20
517.4539765443154
10
987.2962411688001
20
508.3760416396719
10
988.7780312623913
20
499.35897501689095
10
991.683163771911
20
490.7584455427785
0
SPLINE
210
0
220
0
230
0
70
8
71
3
72
8
73
4
74
0
42
0
43
0
40
0
40
0
40
0
40
0
40
1
40
1
40
1
40
1
10
991.683163771911
20
490.7584455427785
10
994.5882962814308
20
482.15791606866605
10
998.877812913766
20
474.0892582235189
10
1004.3825181218956
20
466.87073187082507
0
LINE
10
1046.902102852345
20
568.0372212178539
11
1004.3825181232595
21
568.0372212178539
0
SPLINE
210
0
220
0
230
0
70
8
71
3
72
8
73
4
74
0
42
0
43
0
40
0
40
0
40
0
40
0
40
1
40
1
40
1
40
1
10
867.3454560151033
20
466.87073187079415
10
876.9428892222439
20
471.38873462041954
10
885.0569415391452
20
478.5438887655793
10
890.7401406132586
20
487.50069183895016
0
SPLINE
210
0
220
0
230
0
70
8
71
3
72
8
73
4
74
0
42
0
43
0
40
0
40
0
40
0
40
0
40
1
40
1
40
1
40
1
10
890.7401406132586
20
487.50069183895016
10
896.4233396873722
20
496.45749491232095
10
899.4411319989699
20
506.8462872101037
10
899.4411319989699
20
517.4539765443154
0
SPLINE
210
0
220
0
230
0
70
8
71
3
72
8
73
4
74
0
42
0
43
0
40
0
40
0
40
0
40
0
40
1
40
1
40
1
40
1
10
899.4411319989699
20
517.4539765443154
10
899.4411319989699
20
528.061665878527
10
896.4233396873722
20
538.4504581763098
10
890.7401406132586
20
547.4072612496807
0
SPLINE
210
0
220
0
230
0
70
8
71
3
72
8
73
4
74
0
42
0
43
0
40
0
40
0
40
0
40
0
40
1
40
1
40
1
40
1
10
890.7401406132586
20
547.4072612496807
10
885.0569415391452
20
556.3640643230515
10
876.9428892222439
20
563.5192184682112
10
867.3454560151033
20
568.0372212178366
0
LINE
10
909.865040745929
20
568.0372212178539
11
867.3454560150687
21
568.0372212178539
0
SPLINE
210
0
220
0
230
0
70
8
71
3
72
8
73
4
74
0
42
0
43
0
40
0
40
0
40
0
40
0
40
1
40
1
40
1
40
1
10
909.8650407455181
20
466.87073187082507
10
915.3697459536477
20
474.08925822351887
10
919.659262585983
20
482.15791606866605
10
922.5643950955026
20
490.7584455427785
0
SPLINE
210
0
220
0
230
0
70
8
71
3
72
8
73
4
74
0
42
0
43
0
40
0
40
0
40
0
40
0
40
1
40
1
40
1
40
1
10
922.5643950955026
20
490.7584455427785
10
925.4695276050223
20
499.3589750168909
10
926.9513176986136
20
508.3760416396719
10
926.9513176986136
20
517.4539765443153
0
SPLINE
210
0
220
0
230
0
70
8
71
3
72
8
73
4
74
0
42
0
43
0
40
0
40
0
40
0
40
0
40
1
40
1
40
1
40
1
10
926.9513176986136
20
517.4539765443153
10
926.9513176986136
20
526.5319114489589
10
925.4695276050224
20
535.5489780717398
10
922.5643950955026
20
544.1495075458522
0
SPLINE
210
0
220
0
230
0
70
8
71
3
72
8
73
4
74
0
42
0
43
0
40
0
40
0
40
0
40
0
40
1
40
1
40
1
40
1
10
922.5643950955026
20
544.1495075458522
10
919.659262585983
20
552.7500370199647
10
915.3697459536477
20
560.8186948651119
10
909.8650407455181
20
568.0372212178056
0
LINE
10
867.3454560150687
20
466.8707318707768
11
909.865040745929
21
466.8707318707768
0
LINE
10
819.7212144939963
20
568.0372212178539
11
713.8208713041535
21
568.0372212178539
0
SPLINE
210
0
220
0
230
0
70
8
71
3
72
8
73
4
74
0
42
0
43
0
40
0
40
0
40
0
40
0
40
1
40
1
40
1
40
1
10
819.7212144939618
20
568.0372212178366
10
810.1237812868212
20
563.5192184682112
10
802.0097289699199
20
556.3640643230515
10
796.3265298958064
20
547.4072612496807
0
SPLINE
210
0
220
0
230
0
70
8
71
3
72
8
73
4
74
0
42
0
43
0
40
0
40
0
40
0
40
0
40
1
40
1
40
1
40
1
10
796.3265298958064
20
547.4072612496807
10
790.643330821693
20
538.4504581763098
10
787.6255385100952
20
528.061665878527
10
787.6255385100952
20
517.4539765443153
0
SPLINE
210
0
220
0
230
0
70
8
71
3
72
8
73
4
74
0
42
0
43
0
40
0
40
0
40
0
40
0
40
1
40
1
40
1
40
1
10
787.6255385100952
20
517.4539765443153
10
787.6255385100952
20
506.8462872101037
10
790.643330821693
20
496.45749491232095
10
796.3265298958064
20
487.50069183895016
0
SPLINE
210
0
220
0
230
0
70
8
71
3
72
8
73
4
74
0
42
0
43
0
40
0
40
0
40
0
40
0
40
1
40
1
40
1
40
1
10
796.3265298958064
20
487.50069183895016
10
802.0097289699199
20
478.5438887655793
10
810.1237812868212
20
471.38873462041954
10
819.7212144939618
20
466.87073187079415
0
LINE
10
713.8208713041535
20
466.8707318707768
11
819.7212144939963
21
466.8707318707768
0
SPLINE
210
0
220
0
230
0
70
8
71
3
72
8
73
4
74
0
42
0
43
0
40
0
40
0
40
0
40
0
40
1
40
1
40
1
40
1
10
713.8208713041879
20
466.87073187079415
10
723.4183045113286
20
471.38873462041954
10
731.5323568282299
20
478.5438887655793
10
737.2155559023433
20
487.50069183895016
0
SPLINE
210
0
220
0
230
0
70
8
71
3
72
8
73
4
74
0
42
0
43
0
40
0
40
0
40
0
40
0
40
1
40
1
40
1
40
1
10
737.2155559023433
20
487.50069183895016
10
742.8987549764568
20
496.45749491232095
10
745.9165472880545
20
506.8462872101037
10
745.9165472880545
20
517.4539765443154
0
SPLINE
210
0
220
0
230
0
70
8
71
3
72
8
73
4
74
0
42
0
43
0
40
0
40
0
40
0
40
0
40
1
40
1
40
1
40
1
10
745.9165472880545
20
517.4539765443154
10
745.9165472880545
20
528.061665878527
10
742.8987549764568
20
538.4504581763098
10
737.2155559023433
20
547.4072612496807
0
SPLINE
210
0
220
0
230
0
70
8
71
3
72
8
73
4
74
0
42
0
43
0
40
0
40
0
40
0
40
0
40
1
40
1
40
1
40
1
10
737.2155559023433
20
547.4072612496807
10
731.5323568282299
20
556.3640643230515
10
723.4183045113286
20
563.5192184682112
10
713.8208713041879
20
568.0372212178366
0
SPLINE
210
0
220
0
230
0
70
8
71
3
72
8
73
4
74
0
42
0
43
0
40
0
40
0
40
0
40
0
40
1
40
1
40
1
40
1
10
512.6720450721311
20
568.0372212178366
10
503.0746118649905
20
563.5192184682112
10
494.96055954808924
20
556.3640643230515
10
489.2773604739758
20
547.4072612496807
0
SPLINE
210
0
220
0
230
0
70
8
71
3
72
8
73
4
74
0
42
0
43
0
40
0
40
0
40
0
40
0
40
1
40
1
40
1
40
1
10
489.2773604739758
20
547.4072612496807
10
483.5941613998623
20
538.4504581763098
10
480.5763690882645
20
528.061665878527
10
480.5763690882645
20
517.4539765443153
0
SPLINE
210
0
220
0
230
0
70
8
71
3
72
8
73
4
74
0
42
0
43
0
40
0
40
0
40
0
40
0
40
1
40
1
40
1
40
1
10
480.5763690882645
20
517.4539765443153
10
480.5763690882645
20
506.8462872101037
10
483.5941613998623
20
496.45749491232095
10
489.2773604739758
20
487.50069183895016
0
SPLINE
210
0
220
0
230
0
70
8
71
3
72
8
73
4
74
0
42
0
43
0
40
0
40
0
40
0
40
0
40
1
40
1
40
1
40
1
10
489.2773604739758
20
487.50069183895016
10
494.96055954808924
20
478.5438887655793
10
503.0746118649905
20
471.38873462041954
10
512.6720450721311
20
466.87073187079415
0
LINE
10
470.1524603430802
20
466.8707318707768
11
512.6720450721657
21
466.8707318707768
0
SPLINE
210
0
220
0
230
0
70
8
71
3
72
8
73
4
74
0
42
0
43
0
40
0
40
0
40
0
40
0
40
1
40
1
40
1
40
1
10
470.1524603417163
20
568.0372212178057
10
464.64775513358666
20
560.8186948651119
10
460.35823850125144
20
552.7500370199648
10
457.4531059917317
20
544.1495075458523
0
SPLINE
210
0
220
0
230
0
70
8
71
3
72
8
73
4
74
0
42
0
43
0
40
0
40
0
40
0
40
0
40
1
40
1
40
1
40
1
10
457.4531059917317
20
544.1495075458523
10
454.547973482212
20
535.5489780717398
10
453.06618338862074
20
526.5319114489589
10
453.06618338862074
20
517.4539765443154
0
SPLINE
210
0
220
0
230
0
70
8
71
3
72
8
73
4
74
0
42
0
43
0
40
0
40
0
40
0
40
0
40
1
40
1
40
1
40
1
10
453.06618338862074
20
517.4539765443154
10
453.06618338862074
20
508.3760416396719
10
454.547973482212
20
499.35897501689095
10
457.4531059917317
20
490.7584455427785
0
SPLINE
210
0
220
0
230
0
70
8
71
3
72
8
73
4
74
0
42
0
43
0
40
0
40
0
40
0
40
0
40
1
40
1
40
1
40
1
10
457.4531059917317
20
490.7584455427785
10
460.35823850125144
20
482.15791606866605
10
464.64775513358666
20
474.0892582235189
10
470.1524603417164
20
466.87073187082507
0
LINE
10
512.6720450721657
20
568.0372212178539
11
470.1524603430802
21
568.0372212178539
0
SPLINE
210
0
220
0
230
0
70
8
71
3
72
8
73
4
74
0
42
0
43
0
40
0
40
0
40
0
40
0
40
1
40
1
40
1
40
1
10
293.6554698891607
20
568.0372212178366
10
284.0580366820201
20
563.5192184682112
10
275.9439843651188
20
556.3640643230515
10
270.2607852910053
20
547.4072612496807
0
SPLINE
210
0
220
0
230
0
70
8
71
3
72
8
73
4
74
0
42
0
43
0
40
0
40
0
40
0
40
0
40
1
40
1
40
1
40
1
10
270.2607852910053
20
547.4072612496807
10
264.57758621689186
20
538.4504581763098
10
261.5597939052941
20
528.061665878527
10
261.5597939052941
20
517.4539765443153
0
SPLINE
210
0
220
0
230
0
70
8
71
3
72
8
73
4
74
0
42
0
43
0
40
0
40
0
40
0
40
0
40
1
40
1
40
1
40
1
10
261.5597939052941
20
517.4539765443153
10
261.5597939052941
20
506.8462872101037
10
264.57758621689186
20
496.45749491232095
10
270.2607852910053
20
487.50069183895016
0
SPLINE
210
0
220
0
230
0
70
8
71
3
72
8
73
4
74
0
42
0
43
0
40
0
40
0
40
0
40
0
40
1
40
1
40
1
40
1
10
270.2607852910053
20
487.50069183895016
10
275.9439843651188
20
478.5438887655793
10
284.0580366820201
20
471.38873462041954
10
293.6554698891606
20
466.87073187079415
0
LINE
10
251.13588516010975
20
466.8707318707768
11
293.65546988919516
21
466.8707318707768
0
SPLINE
210
0
220
0
230
0
70
8
71
3
72
8
73
4
74
0
42
0
43
0
40
0
40
0
40
0
40
0
40
1
40
1
40
1
40
1
10
251.13588515874596
20
568.0372212178056
10
245.63117995061634
20
560.8186948651119
10
241.341663318281
20
552.7500370199647
10
238.4365308087613
20
544.1495075458523
0
SPLINE
210
0
220
0
230
0
70
8
71
3
72
8
73
4
74
0
42
0
43
0
40
0
40
0
40
0
40
0
40
1
40
1
40
1
40
1
10
238.4365308087613
20
544.1495075458523
10
235.53139829924157
20
535.5489780717398
10
234.04960820565032
20
526.5319114489589
10
234.04960820565032
20
517.4539765443153
0
SPLINE
210
0
220
0
230
0
70
8
71
3
72
8
73
4
74
0
42
0
43
0
40
0
40
0
40
0
40
0
40
1
40
1
40
1
40
1
10
234.04960820565032
20
517.4539765443153
10
234.04960820565032
20
508.3760416396719
10
235.53139829924157
20
499.35897501689095
10
238.4365308087613
20
490.75844554277853
0
SPLINE
210
0
220
0
230
0
70
8
71
3
72
8
73
4
74
0
42
0
43
0
40
0
40
0
40
0
40
0
40
1
40
1
40
1
40
1
10
238.4365308087613
20
490.75844554277853
10
241.341663318281
20
482.15791606866605
10
245.63117995061634
20
474.089258223519
10
251.13588515874596
20
466.8707318708251
0
LINE
10
293.65546988919516
20
568.0372212178539
11
251.13588516010975
21
568.0372212178539
0
LINE
10
341.2797114102675
20
466.8707318707768
11
383.7992961411279
21
466.8707318707768
0
SPLINE
210
0
220
0
230
0
70
8
71
3
72
8
73
4
74
0
42
0
43
0
40
0
40
0
40
0
40
0
40
1
40
1
40
1
40
1
10
341.2797114103022
20
466.8707318707941
10
350.8771446174429
20
471.3887346204195
10
358.9911969343441
20
478.54388876557925
10
364.6743960084575
20
487.5006918389501
0
SPLINE
210
0
220
0
230
0
70
8
71
3
72
8
73
4
74
0
42
0
43
0
40
0
40
0
40
0
40
0
40
1
40
1
40
1
40
1
10
364.6743960084575
20
487.5006918389501
10
370.35759508257104
20
496.45749491232095
10
373.3753873941688
20
506.84628721010364
10
373.3753873941688
20
517.4539765443153
0
SPLINE
210
0
220
0
230
0
70
8
71
3
72
8
73
4
74
0
42
0
43
0
40
0
40
0
40
0
40
0
40
1
40
1
40
1
40
1
10
373.3753873941688
20
517.4539765443153
10
373.3753873941688
20
528.0616658785272
10
370.35759508257104
20
538.4504581763099
10
364.6743960084575
20
547.4072612496807
0
SPLINE
210
0
220
0
230
0
70
8
71
3
72
8
73
4
74
0
42
0
43
0
40
0
40
0
40
0
40
0
40
1
40
1
40
1
40
1
10
364.6743960084575
20
547.4072612496807
10
358.9911969343441
20
556.3640643230515
10
350.8771446174429
20
563.5192184682112
10
341.2797114103022
20
568.0372212178366
0
LINE
10
383.7992961411279
20
568.0372212178539
11
341.2797114102675
21
568.0372212178539
0
SPLINE
210
0
220
0
230
0
70
8
71
3
72
8
73
4
74
0
42
0
43
0
40
0
40
0
40
0
40
0
40
1
40
1
40
1
40
1
10
383.79929614071705
20
466.870731870825
10
389.30400134884667
20
474.0892582235188
10
393.593517981182
20
482.157916068666
10
396.4986504907016
20
490.7584455427784
0
SPLINE
210
0
220
0
230
0
70
8
71
3
72
8
73
4
74
0
42
0
43
0
40
0
40
0
40
0
40
0
40
1
40
1
40
1
40
1
10
396.4986504907016
20
490.7584455427784
10
399.40378300022144
20
499.35897501689084
10
400.8855730938126
20
508.3760416396719
10
400.8855730938126
20
517.4539765443153
0
SPLINE
210
0
220
0
230
0
70
8
71
3
72
8
73
4
74
0
42
0
43
0
40
0
40
0
40
0
40
0
40
1
40
1
40
1
40
1
10
400.8855730938126
20
517.4539765443153
10
400.8855730938126
20
526.5319114489589
10
399.40378300022144
20
535.5489780717398
10
396.4986504907016
20
544.1495075458523
0
SPLINE
210
0
220
0
230
0
70
8
71
3
72
8
73
4
74
0
42
0
43
0
40
0
40
0
40
0
40
0
40
1
40
1
40
1
40
1
10
396.4986504907016
20
544.1495075458523
10
393.593517981182
20
552.7500370199647
10
389.30400134884667
20
560.8186948651119
10
383.79929614071705
20
568.0372212178057
0
LINE
10
1200.4266875632604
20
568.0372212178539
11
1094.5263443734175
21
568.0372212178539
0
SPLINE
210
0
220
0
230
0
70
8
71
3
72
8
73
4
74
0
42
0
43
0
40
0
40
0
40
0
40
0
40
1
40
1
40
1
40
1
10
1200.4266875632259
20
568.0372212178366
10
1190.8292543560851
20
563.5192184682112
10
1182.7152020391839
20
556.3640643230515
10
1177.0320029650704
20
547.4072612496807
0
SPLINE
210
0
220
0
230
0
70
8
71
3
72
8
73
4
74
0
42
0
43
0
40
0
40
0
40
0
40
0
40
1
40
1
40
1
40
1
10
1177.0320029650704
20
547.4072612496807
10
1171.348803890957
20
538.4504581763098
10
1168.3310115793593
20
528.061665878527
10
1168.3310115793593
20
517.4539765443153
0
SPLINE
210
0
220
0
230
0
70
8
71
3
72
8
73
4
74
0
42
0
43
0
40
0
40
0
40
0
40
0
40
1
40
1
40
1
40
1
10
1168.3310115793593
20
517.4539765443153
10
1168.3310115793593
20
506.8462872101037
10
1171.348803890957
20
496.45749491232095
10
1177.0320029650704
20
487.50069183895016
0
SPLINE
210
0
220
0
230
0
70
8
71
3
72
8
73
4
74
0
42
0
43
0
40
0
40
0
40
0
40
0
40
1
40
1
40
1
40
1
10
1177.0320029650704
20
487.50069183895016
10
1182.7152020391839
20
478.5438887655793
10
1190.8292543560851
20
471.38873462041954
10
1200.4266875632259
20
466.87073187079415
0
LINE
10
1094.5263443734175
20
466.8707318707768
11
1200.4266875632604
21
466.8707318707768
0
SPLINE
210
0
220
0
230
0
70
8
71
3
72
8
73
4
74
0
42
0
43
0
40
0
40
0
40
0
40
0
40
1
40
1
40
1
40
1
10
1094.526344373452
20
466.8707318707941
10
1104.1237775805926
20
471.38873462041954
10
1112.2378298974938
20
478.5438887655793
10
1117.9210289716075
20
487.50069183895016
0
SPLINE
210
0
220
0
230
0
70
8
71
3
72
8
73
4
74
0
42
0
43
0
40
0
40
0
40
0
40
0
40
1
40
1
40
1
40
1
10
1117.9210289716075
20
487.50069183895016
10
1123.604228045721
20
496.45749491232095
10
1126.6220203573187
20
506.84628721010364
10
1126.6220203573187
20
517.4539765443153
0
SPLINE
210
0
220
0
230
0
70
8
71
3
72
8
73
4
74
0
42
0
43
0
40
0
40
0
40
0
40
0
40
1
40
1
40
1
40
1
10
1126.6220203573187
20
517.4539765443153
10
1126.6220203573187
20
528.061665878527
10
1123.604228045721
20
538.4504581763099
10
1117.9210289716075
20
547.4072612496807
0
SPLINE
210
0
220
0
230
0
70
8
71
3
72
8
73
4
74
0
42
0
43
0
40
0
40
0
40
0
40
0
40
1
40
1
40
1
40
1
10
1117.9210289716075
20
547.4072612496807
10
1112.2378298974938
20
556.3640643230515
10
1104.1237775805926
20
563.5192184682112
10
1094.526344373452
20
568.0372212178366
0
LINE
10
666.196629783081
20
568.0372212178539
11
560.2962865932382
21
568.0372212178539
0
SPLINE
210
0
220
0
230
0
70
8
71
3
72
8
73
4
74
0
42
0
43
0
40
0
40
0
40
0
40
0
40
1
40
1
40
1
40
1
10
666.1966297830464
20
568.0372212178366
10
656.5991965759058
20
563.5192184682112
10
648.4851442590045
20
556.3640643230515
10
642.8019451848911
20
547.4072612496807
0
SPLINE
210
0
220
0
230
0
70
8
71
3
72
8
73
4
74
0
42
0
43
0
40
0
40
0
40
0
40
0
40
1
40
1
40
1
40
1
10
642.8019451848911
20
547.4072612496807
10
637.1187461107777
20
538.4504581763098
10
634.1009537991798
20
528.061665878527
10
634.1009537991798
20
517.4539765443153
0
SPLINE
210
0
220
0
230
0
70
8
71
3
72
8
73
4
74
0
42
0
43
0
40
0
40
0
40
0
40
0
40
1
40
1
40
1
40
1
10
634.1009537991798
20
517.4539765443153
10
634.1009537991798
20
506.84628721010364
10
637.1187461107777
20
496.45749491232095
10
642.8019451848911
20
487.50069183895016
0
SPLINE
210
0
220
0
230
0
70
8
71
3
72
8
73
4
74
0
42
0
43
0
40
0
40
0
40
0
40
0
40
1
40
1
40
1
40
1
10
642.8019451848911
20
487.50069183895016
10
648.4851442590045
20
478.5438887655793
10
656.5991965759058
20
471.38873462041954
10
666.1966297830464
20
466.8707318707941
0
LINE
10
560.2962865932382
20
466.8707318707768
11
666.196629783081
21
466.8707318707768
0
SPLINE
210
0
220
0
230
0
70
8
71
3
72
8
73
4
74
0
42
0
43
0
40
0
40
0
40
0
40
0
40
1
40
1
40
1
40
1
10
560.2962865932726
20
466.87073187079415
10
569.8937198004132
20
471.38873462041954
10
578.0077721173145
20
478.5438887655793
10
583.6909711914279
20
487.50069183895016
0
SPLINE
210
0
220
0
230
0
70
8
71
3
72
8
73
4
74
0
42
0
43
0
40
0
40
0
40
0
40
0
40
1
40
1
40
1
40
1
10
583.6909711914279
20
487.50069183895016
10
589.3741702655415
20
496.45749491232095
10
592.3919625771392
20
506.8462872101037
10
592.3919625771392
20
517.4539765443154
0
SPLINE
210
0
220
0
230
0
70
8
71
3
72
8
73
4
74
0
42
0
43
0
40
0
40
0
40
0
40
0
40
1
40
1
40
1
40
1
10
592.3919625771392
20
517.4539765443154
10
592.3919625771392
20
528.061665878527
10
589.3741702655415
20
538.4504581763098
10
583.6909711914279
20
547.4072612496807
0
SPLINE
210
0
220
0
230
0
70
8
71
3
72
8
73
4
74
0
42
0
43
0
40
0
40
0
40
0
40
0
40
1
40
1
40
1
40
1
10
583.6909711914279
20
547.4072612496807
10
578.0077721173145
20
556.3640643230515
10
569.8937198004132
20
563.5192184682112
10
560.2962865932726
20
568.0372212178366
0
LINE
10
1547.903367189201
20
687.3019819937603
11
1553.2130768511206
21
644.3558009007368
0
LINE
10
1547.903367189201
20
687.3019819937603
11
100
21
687.3019819937603
0
LINE
10
100
20
687.3019819937603
11
203.0199925244192
21
466.37489507608
0
SPLINE
210
0
220
0
230
0
70
8
71
3
72
8
73
4
74
0
42
0
43
0
40
0
40
0
40
0
40
0
40
1
40
1
40
1
40
1
10
203.0199925240836
20
466.3748950763667
10
207.53746281691213
20
456.6871487701997
10
213.40810464928336
20
447.6901858941005
10
220.45601384314318
20
439.65358572149364
0
SPLINE
210
0
220
0
230
0
70
8
71
3
72
8
73
4
74
0
42
0
43
0
40
0
40
0
40
0
40
0
40
1
40
1
40
1
40
1
10
220.45601384314318
20
439.65358572149364
10
227.503923037003
20
431.61698554888665
10
235.65764312421527
20
424.62222856545355
10
244.67286122196754
20
418.8789012206821
0
SPLINE
210
0
220
0
230
0
70
8
71
3
72
8
73
4
74
0
42
0
43
0
40
0
40
0
40
0
40
0
40
1
40
1
40
1
40
1
10
244.67286122196754
20
418.8789012206821
10
253.6880793197198
20
413.1355738759106
10
263.47339305221215
20
408.7019059051901
10
273.7356015023612
20
405.71074491571983
0
SPLINE
210
0
220
0
230
0
70
8
71
3
72
8
73
4
74
0
42
0
43
0
40
0
40
0
40
0
40
0
40
1
40
1
40
1
40
1
10
273.7356015023612
20
405.71074491571983
10
283.99780995251035
20
402.7195839262496
10
294.6328679132978
20
401.201256330311
10
305.32211327203277
20
401.201256330311
0
LINE
10
305.32211327203277
20
401.20125632969166
11
1714.7040198610111
21
401.20125632969166
0
SPLINE
210
0
220
0
230
0
70
8
71
3
72
8
73
4
74
0
42
0
43
0
40
0
40
0
40
0
40
0
40
1
40
1
40
1
40
1
10
1714.7040198610111
20
401.2012563303111
10
1725.3932652197461
20
401.2012563303111
10
1736.0283231805336
20
402.7195839262497
10
1746.2905316306828
20
405.7107449157199
0
SPLINE
210
0
220
0
230
0
70
8
71
3
72
8
73
4
74
0
42
0
43
0
40
0
40
0
40
0
40
0
40
1
40
1
40
1
40
1
10
1746.2905316306828
20
405.7107449157199
10
1756.5527400808319
20
408.7019059051901
10
1766.3380538133242
20
413.1355738759106
10
1775.3532719110763
20
418.8789012206821
0
SPLINE
210
0
220
0
230
0
70
8
71
3
72
8
73
4
74
0
42
0
43
0
40
0
40
0
40
0
40
0
40
1
40
1
40
1
40
1
10
1775.3532719110763
20
418.8789012206821
10
1784.3684900088285
20
424.62222856545355
10
1792.522210096041
20
431.61698554888665
10
1799.5701192899005
20
439.6535857214936
0
SPLINE
210
0
220
0
230
0
70
8
71
3
72
8
73
4
74
0
42
0
43
0
40
0
40
0
40
0
40
0
40
1
40
1
40
1
40
1
10
1799.5701192899005
20
439.6535857214936
10
1806.6180284837606
20
447.6901858941005
10
1812.488670316132
20
456.6871487701997
10
1817.0061406089603
20
466.37489507636667
0
LINE
10
1817.0061406086247
20
466.37489507608
11
1900
21
644.3558009007368
0
LINE
10
1553.2130768511206
20
644.3558009007368
11
1900
21
644.3558009007368
0
SPLINE
210
0
220
0
230
0
70
8
71
3
72
8
73
4
74
0
42
0
43
0
40
0
40
0
40
0
40
0
40
1
40
1
40
1
40
1
10
345.8652016945251
20
517.4539765443153
10
345.865201694525
20
533.1375440559814
10
333.15115816139746
20
545.851587589109
10
317.4675906497314
20
545.851587589109
0
SPLINE
210
0
220
0
230
0
70
8
71
3
72
8
73
4
74
0
42
0
43
0
40
0
40
0
40
0
40
0
40
1
40
1
40
1
40
1
10
317.4675906497314
20
545.851587589109
10
301.7840231380653
20
545.851587589109
10
289.06997960493777
20
533.1375440559814
10
289.06997960493766
20
517.4539765443153
0
SPLINE
210
0
220
0
230
0
70
8
71
3
72
8
73
4
74
0
42
0
43
0
40
0
40
0
40
0
40
0
40
1
40
1
40
1
40
1
10
289.06997960493766
20
517.4539765443153
10
289.06997960493766
20
501.77040903264935
10
301.7840231380653
20
489.0563654995217
10
317.4675906497314
20
489.0563654995217
0
SPLINE
210
0
220
0
230
0
70
8
71
3
72
8
73
4
74
0
42
0
43
0
40
0
40
0
40
0
40
0
40
1
40
1
40
1
40
1
10
317.4675906497314
20
489.0563654995217
10
333.15115816139746
20
489.0563654995217
10
345.865201694525
20
501.7704090326493
10
345.8652016945251
20
517.4539765443153
0
SPLINE
210
0
220
0
230
0
70
8
71
3
72
8
73
4
74
0
42
0
43
0
40
0
40
0
40
0
40
0
40
1
40
1
40
1
40
1
10
564.8817768774954
20
517.4539765443153
10
564.8817768774954
20
533.1375440559814
10
552.1677333443679
20
545.8515875891089
10
536.4841658327018
20
545.8515875891089
0
SPLINE
210
0
220
0
230
0
70
8
71
3
72
8
73
4
74
0
42
0
43
0
40
0
40
0
40
0
40
0
40
1
40
1
40
1
40
1
10
536.4841658327018
20
545.8515875891089
10
520.8005983210359
20
545.8515875891089
10
508.08655478790826
20
533.1375440559814
10
508.08655478790826
20
517.4539765443153
0
SPLINE
210
0
220
0
230
0
70
8
71
3
72
8
73
4
74
0
42
0
43
0
40
0
40
0
40
0
40
0
40
1
40
1
40
1
40
1
10
508.08655478790826
20
517.4539765443153
10
508.08655478790826
20
501.77040903264935
10
520.8005983210359
20
489.0563654995218
10
536.4841658327018
20
489.05636549952175
0
SPLINE
210
0
220
0
230
0
70
8
71
3
72
8
73
4
74
0
42
0
43
0
40
0
40
0
40
0
40
0
40
1
40
1
40
1
40
1
10
536.4841658327018
20
489.05636549952175
10
552.1677333443679
20
489.05636549952175
10
564.8817768774954
20
501.77040903264935
10
564.8817768774954
20
517.4539765443153
0
SPLINE
210
0
220
0
230
0
70
8
71
3
72
8
73
4
74
0
42
0
43
0
40
0
40
0
40
0
40
0
40
1
40
1
40
1
40
1
10
718.4063615884108
20
517.4539765443153
10
718.4063615884108
20
533.1375440559814
10
705.6923180552832
20
545.8515875891089
10
690.0087505436172
20
545.8515875891089
0
SPLINE
210
0
220
0
230
0
70
8
71
3
72
8
73
4
74
0
42
0
43
0
40
0
40
0
40
0
40
0
40
1
40
1
40
1
40
1
10
690.0087505436172
20
545.8515875891089
10
674.3251830319512
20
545.8515875891089
10
661.6111394988236
20
533.1375440559814
10
661.6111394988236
20
517.4539765443153
0
SPLINE
210
0
220
0
230
0
70
8
71
3
72
8
73
4
74
0
42
0
43
0
40
0
40
0
40
0
40
0
40
1
40
1
40
1
40
1
10
661.6111394988236
20
517.4539765443153
10
661.6111394988236
20
501.77040903264935
10
674.3251830319512
20
489.0563654995218
10
690.0087505436172
20
489.05636549952175
0
SPLINE
210
0
220
0
230
0
70
8
71
3
72
8
73
4
74
0
42
0
43
0
40
0
40
0
40
0
40
0
40
1
40
1
40
1
40
1
10
690.0087505436172
20
489.05636549952175
10
705.6923180552832
20
489.05636549952175
10
718.4063615884108
20
501.77040903264935
10
718.4063615884108
20
517.4539765443153
0
SPLINE
210
0
220
0
230
0
70
8
71
3
72
8
73
4
74
0
42
0
43
0
40
0
40
0
40
0
40
0
40
1
40
1
40
1
40
1
10
871.9309462993261
20
517.4539765443153
10
871.9309462993261
20
533.1375440559814
10
859.2169027661986
20
545.8515875891089
10
843.5333352545325
20
545.8515875891089
0
SPLINE
210
0
220
0
230
0
70
8
71
3
72
8
73
4
74
0
42
0
43
0
40
0
40
0
40
0
40
0
40
1
40
1
40
1
40
1
10
843.5333352545325
20
545.8515875891089
10
827.8497677428666
20
545.8515875891089
10
815.135724209739
20
533.1375440559814
10
815.135724209739
20
517.4539765443153
0
SPLINE
210
0
220
0
230
0
70
8
71
3
72
8
73
4
74
0
42
0
43
0
40
0
40
0
40
0
40
0
40
1
40
1
40
1
40
1
10
815.135724209739
20
517.4539765443153
10
815.135724209739
20
501.77040903264935
10
827.8497677428666
20
489.0563654995218
10
843.5333352545325
20
489.05636549952175
0
SPLINE
210
0
220
0
230
0
70
8
71
3
72
8
73
4
74
0
42
0
43
0
40
0
40
0
40
0
40
0
40
1
40
1
40
1
40
1
10
843.5333352545325
20
489.05636549952175
10
859.2169027661986
20
489.05636549952175
10
871.9309462993261
20
501.77040903264935
10
871.9309462993261
20
517.4539765443153
0
SPLINE
210
0
220
0
230
0
70
8
71
3
72
8
73
4
74
0
42
0
43
0
40
0
40
0
40
0
40
0
40
1
40
1
40
1
40
1
10
1099.1118346576748
20
517.4539765443153
10
1099.1118346576748
20
533.1375440559814
10
1086.3977911245472
20
545.8515875891089
10
1070.7142236128811
20
545.8515875891089
0
SPLINE
210
0
220
0
230
0
70
8
71
3
72
8
73
4
74
0
42
0
43
0
40
0
40
0
40
0
40
0
40
1
40
1
40
1
40
1
10
1070.7142236128811
20
545.8515875891089
10
1055.0306561012153
20
545.8515875891089
10
1042.3166125680875
20
533.1375440559814
10
1042.3166125680875
20
517.4539765443153
0
SPLINE
210
0
220
0
230
0
70
8
71
3
72
8
73
4
74
0
42
0
43
0
40
0
40
0
40
0
40
0
40
1
40
1
40
1
40
1
10
1042.3166125680875
20
517.4539765443153
10
1042.3166125680875
20
501.77040903264935
10
1055.0306561012153
20
489.0563654995218
10
1070.7142236128811
20
489.05636549952175
0
SPLINE
210
0
220
0
230
0
70
8
71
3
72
8
73
4
74
0
42
0
43
0
40
0
40
0
40
0
40
0
40
1
40
1
40
1
40
1
10
1070.7142236128811
20
489.05636549952175
10
1086.3977911245472
20
489.05636549952175
10
1099.1118346576748
20
501.77040903264935
10
1099.1118346576748
20
517.4539765443153
0
SPLINE
210
0
220
0
230
0
70
8
71
3
72
8
73
4
74
0
42
0
43
0
40
0
40
0
40
0
40
0
40
1
40
1
40
1
40
1
10
1252.6364193685902
20
517.4539765443153
10
1252.6364193685902
20
533.1375440559814
10
1239.9223758354626
20
545.851587589109
10
1224.2388083237965
20
545.851587589109
0
SPLINE
210
0
220
0
230
0
70
8
71
3
72
8
73
4
74
0
42
0
43
0
40
0
40
0
40
0
40
0
40
1
40
1
40
1
40
1
10
1224.2388083237965
20
545.851587589109
10
1208.5552408121305
20
545.851587589109
10
1195.841197279003
20
533.1375440559814
10
1195.841197279003
20
517.4539765443153
0
SPLINE
210
0
220
0
230
0
70
8
71
3
72
8
73
4
74
0
42
0
43
0
40
0
40
0
40
0
40
0
40
1
40
1
40
1
40
1
10
1195.841197279003
20
517.4539765443153
10
1195.841197279003
20
501.77040903264935
10
1208.5552408121305
20
489.05636549952175
10
1224.2388083237965
20
489.05636549952175
0
SPLINE
210
0
220
0
230
0
70
8
71
3
72
8
73
4
74
0
42
0
43
0
40
0
40
0
40
0
40
0
40
1
40
1
40
1
40
1
10
1224.2388083237965
20
489.05636549952175
10
1239.9223758354626
20
489.05636549952175
10
1252.6364193685902
20
501.77040903264935
10
1252.6364193685902
20
517.4539765443153
0
SPLINE
210
0
220
0
230
0
70
8
71
3
72
8
73
4
74
0
42
0
43
0
40
0
40
0
40
0
40
0
40
1
40
1
40
1
40
1
10
1406.1610040795053
20
517.4539765443153
10
1406.1610040795053
20
533.1375440559814
10
1393.4469605463778
20
545.851587589109
10
1377.763393034712
20
545.851587589109
0
SPLINE
210
0
220
0
230
0
70
8
71
3
72
8
73
4
74
0
42
0
43
0
40
0
40
0
40
0
40
0
40
1
40
1
40
1
40
1
10
1377.763393034712
20
545.851587589109
10
1362.0798255230459
20
545.851587589109
10
1349.3657819899183
20
533.1375440559814
10
1349.3657819899183
20
517.4539765443153
0
SPLINE
210
0
220
0
230
0
70
8
71
3
72
8
73
4
74
0
42
0
43
0
40
0
40
0
40
0
40
0
40
1
40
1
40
1
40
1
10
1349.3657819899183
20
517.4539765443153
10
1349.3657819899183
20
501.77040903264935
10
1362.0798255230459
20
489.05636549952175
10
1377.763393034712
20
489.05636549952175
0
SPLINE
210
0
220
0
230
0
70
8
71
3
72
8
73
4
74
0
42
0
43
0
40
0
40
0
40
0
40
0
40
1
40
1
40
1
40
1
10
1377.763393034712
20
489.05636549952175
10
1393.4469605463778
20
489.05636549952175
10
1406.1610040795053
20
501.77040903264935
10
1406.1610040795053
20
517.4539765443153
0
ENDSEC
0
EOF
